<mxfile host="Electron" agent="Mozilla/5.0 (Windows NT 10.0; Win64; x64) AppleWebKit/537.36 (KHTML, like Gecko) draw.io/27.0.2 Chrome/134.0.6998.205 Electron/35.3.0 Safari/537.36" version="27.0.2">
  <diagram name="Page-1" id="G7X7P2HnfvD-zcnhm2An">
    <mxGraphModel dx="872" dy="577" grid="1" gridSize="10" guides="1" tooltips="1" connect="1" arrows="1" fold="1" page="1" pageScale="1" pageWidth="850" pageHeight="1100" math="0" shadow="0">
      <root>
        <mxCell id="0" />
        <mxCell id="1" parent="0" />
        <mxCell id="Zww7L1hIwnxANnAJBnik-1" value="DRIVER" style="rounded=0;whiteSpace=wrap;html=1;fillColor=light-dark(#0000FF,#0000FF);" parent="1" vertex="1">
          <mxGeometry x="240" y="200" width="80" height="40" as="geometry" />
        </mxCell>
        <mxCell id="Zww7L1hIwnxANnAJBnik-3" value="MAINT_LOG" style="rounded=0;whiteSpace=wrap;html=1;fillColor=light-dark(#0000FF,#0000FF);" parent="1" vertex="1">
          <mxGeometry x="40" y="400" width="80" height="40" as="geometry" />
        </mxCell>
        <mxCell id="Zww7L1hIwnxANnAJBnik-4" value="Route" style="rounded=0;whiteSpace=wrap;html=1;fillColor=light-dark(#0000FF,#0000FF);" parent="1" vertex="1">
          <mxGeometry x="485" y="400" width="80" height="40" as="geometry" />
        </mxCell>
        <mxCell id="Zww7L1hIwnxANnAJBnik-5" value="BUSSES" style="rounded=0;whiteSpace=wrap;html=1;fillColor=light-dark(#0000FF,#0000FF);" parent="1" vertex="1">
          <mxGeometry x="240" y="400" width="80" height="40" as="geometry" />
        </mxCell>
        <mxCell id="Zww7L1hIwnxANnAJBnik-7" value="has" style="rhombus;whiteSpace=wrap;html=1;fillColor=light-dark(#9999FF,#3399FF);" parent="1" vertex="1">
          <mxGeometry x="140" y="395" width="80" height="50" as="geometry" />
        </mxCell>
        <mxCell id="Zww7L1hIwnxANnAJBnik-17" value="assigned" style="rhombus;whiteSpace=wrap;html=1;fillColor=light-dark(#9999FF,#3399FF);" parent="1" vertex="1">
          <mxGeometry x="240" y="300" width="80" height="50" as="geometry" />
        </mxCell>
        <mxCell id="Zww7L1hIwnxANnAJBnik-26" value="" style="endArrow=none;html=1;rounded=0;exitX=1;exitY=0.5;exitDx=0;exitDy=0;entryX=0;entryY=0.5;entryDx=0;entryDy=0;" parent="1" source="Zww7L1hIwnxANnAJBnik-3" target="Zww7L1hIwnxANnAJBnik-7" edge="1">
          <mxGeometry width="50" height="50" relative="1" as="geometry">
            <mxPoint x="120" y="430" as="sourcePoint" />
            <mxPoint x="140" y="430" as="targetPoint" />
          </mxGeometry>
        </mxCell>
        <mxCell id="Zww7L1hIwnxANnAJBnik-27" value="" style="endArrow=none;html=1;rounded=0;exitX=1;exitY=0.5;exitDx=0;exitDy=0;entryX=0;entryY=0.5;entryDx=0;entryDy=0;" parent="1" source="Zww7L1hIwnxANnAJBnik-7" target="Zww7L1hIwnxANnAJBnik-5" edge="1">
          <mxGeometry width="50" height="50" relative="1" as="geometry">
            <mxPoint x="200" y="445" as="sourcePoint" />
            <mxPoint x="220" y="445" as="targetPoint" />
          </mxGeometry>
        </mxCell>
        <mxCell id="Zww7L1hIwnxANnAJBnik-39" value="Dr_Name" style="strokeWidth=2;html=1;shape=mxgraph.flowchart.start_1;whiteSpace=wrap;" parent="1" vertex="1">
          <mxGeometry x="70" y="160" width="70" height="30" as="geometry" />
        </mxCell>
        <mxCell id="Zww7L1hIwnxANnAJBnik-40" value="D_Contact" style="strokeWidth=2;html=1;shape=mxgraph.flowchart.start_1;whiteSpace=wrap;" parent="1" vertex="1">
          <mxGeometry x="170" y="110" width="70" height="30" as="geometry" />
        </mxCell>
        <mxCell id="Zww7L1hIwnxANnAJBnik-41" value="DR_Addre" style="strokeWidth=2;html=1;shape=mxgraph.flowchart.start_1;whiteSpace=wrap;" parent="1" vertex="1">
          <mxGeometry x="310" y="120" width="70" height="30" as="geometry" />
        </mxCell>
        <mxCell id="Zww7L1hIwnxANnAJBnik-42" value="&lt;u&gt;Drv_ID&lt;/u&gt;" style="strokeWidth=2;html=1;shape=mxgraph.flowchart.start_1;whiteSpace=wrap;fillColor=light-dark(#00FFFF,#00CCCC);" parent="1" vertex="1">
          <mxGeometry x="70" y="210" width="70" height="30" as="geometry" />
        </mxCell>
        <mxCell id="Zww7L1hIwnxANnAJBnik-43" value="" style="endArrow=none;html=1;rounded=0;exitX=0.855;exitY=0.855;exitDx=0;exitDy=0;entryX=0;entryY=0.5;entryDx=0;entryDy=0;exitPerimeter=0;" parent="1" source="Zww7L1hIwnxANnAJBnik-42" target="Zww7L1hIwnxANnAJBnik-1" edge="1">
          <mxGeometry width="50" height="50" relative="1" as="geometry">
            <mxPoint x="330" y="190" as="sourcePoint" />
            <mxPoint x="450" y="190" as="targetPoint" />
          </mxGeometry>
        </mxCell>
        <mxCell id="Zww7L1hIwnxANnAJBnik-44" value="" style="endArrow=none;html=1;rounded=0;exitX=0.5;exitY=1;exitDx=0;exitDy=0;exitPerimeter=0;entryX=0.25;entryY=0;entryDx=0;entryDy=0;" parent="1" source="Zww7L1hIwnxANnAJBnik-39" target="Zww7L1hIwnxANnAJBnik-1" edge="1">
          <mxGeometry width="50" height="50" relative="1" as="geometry">
            <mxPoint x="340" y="200" as="sourcePoint" />
            <mxPoint x="280" y="150" as="targetPoint" />
          </mxGeometry>
        </mxCell>
        <mxCell id="Zww7L1hIwnxANnAJBnik-45" value="" style="endArrow=none;html=1;rounded=0;exitX=0.5;exitY=1;exitDx=0;exitDy=0;entryX=0.5;entryY=0;entryDx=0;entryDy=0;exitPerimeter=0;" parent="1" source="Zww7L1hIwnxANnAJBnik-40" target="Zww7L1hIwnxANnAJBnik-1" edge="1">
          <mxGeometry width="50" height="50" relative="1" as="geometry">
            <mxPoint x="350" y="210" as="sourcePoint" />
            <mxPoint x="470" y="210" as="targetPoint" />
          </mxGeometry>
        </mxCell>
        <mxCell id="Zww7L1hIwnxANnAJBnik-46" value="" style="endArrow=none;html=1;rounded=0;exitX=0.145;exitY=0.855;exitDx=0;exitDy=0;entryX=0.75;entryY=0;entryDx=0;entryDy=0;exitPerimeter=0;" parent="1" source="Zww7L1hIwnxANnAJBnik-41" target="Zww7L1hIwnxANnAJBnik-1" edge="1">
          <mxGeometry width="50" height="50" relative="1" as="geometry">
            <mxPoint x="360" y="220" as="sourcePoint" />
            <mxPoint x="480" y="220" as="targetPoint" />
          </mxGeometry>
        </mxCell>
        <mxCell id="vL3UMr7jNvPBlPEy_zV9-10" value="&lt;u&gt;Rout_No&lt;/u&gt;" style="strokeWidth=2;html=1;shape=mxgraph.flowchart.start_1;whiteSpace=wrap;fillColor=light-dark(#00FFFF,#00CCCC);" parent="1" vertex="1">
          <mxGeometry x="610" y="405" width="70" height="30" as="geometry" />
        </mxCell>
        <mxCell id="vL3UMr7jNvPBlPEy_zV9-11" value="Driver_id" style="strokeWidth=2;html=1;shape=mxgraph.flowchart.start_1;whiteSpace=wrap;" parent="1" vertex="1">
          <mxGeometry x="445" y="500" width="70" height="30" as="geometry" />
        </mxCell>
        <mxCell id="vL3UMr7jNvPBlPEy_zV9-12" value="Distance" style="strokeWidth=2;html=1;shape=mxgraph.flowchart.start_1;whiteSpace=wrap;" parent="1" vertex="1">
          <mxGeometry x="565" y="500" width="70" height="30" as="geometry" />
        </mxCell>
        <mxCell id="vL3UMr7jNvPBlPEy_zV9-13" value="Time" style="strokeWidth=2;html=1;shape=mxgraph.flowchart.start_1;whiteSpace=wrap;" parent="1" vertex="1">
          <mxGeometry x="610" y="460" width="70" height="30" as="geometry" />
        </mxCell>
        <mxCell id="vL3UMr7jNvPBlPEy_zV9-18" value="Check_Eng" style="strokeWidth=2;html=1;shape=mxgraph.flowchart.start_1;whiteSpace=wrap;" parent="1" vertex="1">
          <mxGeometry x="80" y="330" width="70" height="30" as="geometry" />
        </mxCell>
        <mxCell id="vL3UMr7jNvPBlPEy_zV9-19" value="&lt;u&gt;Maint_NO&lt;/u&gt;" style="strokeWidth=2;html=1;shape=mxgraph.flowchart.start_1;whiteSpace=wrap;fillColor=light-dark(#00FFFF,#00CCCC);" parent="1" vertex="1">
          <mxGeometry x="40" y="290" width="70" height="30" as="geometry" />
        </mxCell>
        <mxCell id="vL3UMr7jNvPBlPEy_zV9-20" value="Maintinance" style="strokeWidth=2;html=1;shape=mxgraph.flowchart.start_1;whiteSpace=wrap;" parent="1" vertex="1">
          <mxGeometry x="30" y="470" width="70" height="30" as="geometry" />
        </mxCell>
        <mxCell id="vL3UMr7jNvPBlPEy_zV9-21" value="Mileage" style="strokeWidth=2;html=1;shape=mxgraph.flowchart.start_1;whiteSpace=wrap;" parent="1" vertex="1">
          <mxGeometry x="110" y="470" width="70" height="30" as="geometry" />
        </mxCell>
        <mxCell id="vL3UMr7jNvPBlPEy_zV9-22" value="&lt;u&gt;Bus_No&lt;/u&gt;" style="strokeWidth=2;html=1;shape=mxgraph.flowchart.start_1;whiteSpace=wrap;fillColor=light-dark(#00FFFF,#00CCCC);" parent="1" vertex="1">
          <mxGeometry x="350" y="360" width="70" height="30" as="geometry" />
        </mxCell>
        <mxCell id="vL3UMr7jNvPBlPEy_zV9-23" value="Bus_Capac" style="strokeWidth=2;html=1;shape=mxgraph.flowchart.start_1;whiteSpace=wrap;" parent="1" vertex="1">
          <mxGeometry x="300" y="490" width="70" height="30" as="geometry" />
        </mxCell>
        <mxCell id="vL3UMr7jNvPBlPEy_zV9-24" value="Maint_Id" style="strokeWidth=2;html=1;shape=mxgraph.flowchart.start_1;whiteSpace=wrap;" parent="1" vertex="1">
          <mxGeometry x="240" y="530" width="70" height="30" as="geometry" />
        </mxCell>
        <mxCell id="vL3UMr7jNvPBlPEy_zV9-25" value="Driv_Id" style="strokeWidth=2;html=1;shape=mxgraph.flowchart.start_1;whiteSpace=wrap;" parent="1" vertex="1">
          <mxGeometry x="185" y="490" width="70" height="30" as="geometry" />
        </mxCell>
        <mxCell id="vL3UMr7jNvPBlPEy_zV9-30" value="" style="endArrow=none;html=1;rounded=0;entryX=0.5;entryY=0;entryDx=0;entryDy=0;exitX=0.5;exitY=1;exitDx=0;exitDy=0;exitPerimeter=0;" parent="1" source="vL3UMr7jNvPBlPEy_zV9-18" target="Zww7L1hIwnxANnAJBnik-3" edge="1">
          <mxGeometry width="50" height="50" relative="1" as="geometry">
            <mxPoint x="290" y="540" as="sourcePoint" />
            <mxPoint x="290" y="570" as="targetPoint" />
          </mxGeometry>
        </mxCell>
        <mxCell id="vL3UMr7jNvPBlPEy_zV9-31" value="" style="endArrow=none;html=1;rounded=0;entryX=0.25;entryY=0;entryDx=0;entryDy=0;exitX=0.145;exitY=0.855;exitDx=0;exitDy=0;exitPerimeter=0;" parent="1" source="vL3UMr7jNvPBlPEy_zV9-19" target="Zww7L1hIwnxANnAJBnik-3" edge="1">
          <mxGeometry width="50" height="50" relative="1" as="geometry">
            <mxPoint x="205" y="390" as="sourcePoint" />
            <mxPoint x="130" y="410" as="targetPoint" />
          </mxGeometry>
        </mxCell>
        <mxCell id="vL3UMr7jNvPBlPEy_zV9-32" value="" style="endArrow=none;html=1;rounded=0;entryX=1;entryY=1;entryDx=0;entryDy=0;exitX=0.145;exitY=0.145;exitDx=0;exitDy=0;exitPerimeter=0;" parent="1" source="vL3UMr7jNvPBlPEy_zV9-21" target="Zww7L1hIwnxANnAJBnik-3" edge="1">
          <mxGeometry width="50" height="50" relative="1" as="geometry">
            <mxPoint x="215" y="400" as="sourcePoint" />
            <mxPoint x="140" y="420" as="targetPoint" />
          </mxGeometry>
        </mxCell>
        <mxCell id="vL3UMr7jNvPBlPEy_zV9-33" value="" style="endArrow=none;html=1;rounded=0;entryX=0.75;entryY=1;entryDx=0;entryDy=0;exitX=0.5;exitY=0;exitDx=0;exitDy=0;exitPerimeter=0;" parent="1" source="vL3UMr7jNvPBlPEy_zV9-20" target="Zww7L1hIwnxANnAJBnik-3" edge="1">
          <mxGeometry width="50" height="50" relative="1" as="geometry">
            <mxPoint x="225" y="410" as="sourcePoint" />
            <mxPoint x="150" y="430" as="targetPoint" />
          </mxGeometry>
        </mxCell>
        <mxCell id="vL3UMr7jNvPBlPEy_zV9-34" value="" style="endArrow=none;html=1;rounded=0;entryX=0.75;entryY=0;entryDx=0;entryDy=0;exitX=0;exitY=0.5;exitDx=0;exitDy=0;exitPerimeter=0;" parent="1" source="vL3UMr7jNvPBlPEy_zV9-22" target="Zww7L1hIwnxANnAJBnik-5" edge="1">
          <mxGeometry width="50" height="50" relative="1" as="geometry">
            <mxPoint x="235" y="520" as="sourcePoint" />
            <mxPoint x="160" y="540" as="targetPoint" />
          </mxGeometry>
        </mxCell>
        <mxCell id="vL3UMr7jNvPBlPEy_zV9-35" value="" style="endArrow=none;html=1;rounded=0;exitX=0.043;exitY=0.733;exitDx=0;exitDy=0;exitPerimeter=0;entryX=0.5;entryY=1;entryDx=0;entryDy=0;" parent="1" source="vL3UMr7jNvPBlPEy_zV9-23" target="Zww7L1hIwnxANnAJBnik-5" edge="1">
          <mxGeometry width="50" height="50" relative="1" as="geometry">
            <mxPoint x="245" y="530" as="sourcePoint" />
            <mxPoint x="330" y="400" as="targetPoint" />
          </mxGeometry>
        </mxCell>
        <mxCell id="vL3UMr7jNvPBlPEy_zV9-36" value="" style="endArrow=none;html=1;rounded=0;entryX=0.25;entryY=1;entryDx=0;entryDy=0;exitX=0.5;exitY=0;exitDx=0;exitDy=0;exitPerimeter=0;" parent="1" source="vL3UMr7jNvPBlPEy_zV9-24" target="Zww7L1hIwnxANnAJBnik-5" edge="1">
          <mxGeometry width="50" height="50" relative="1" as="geometry">
            <mxPoint x="255" y="540" as="sourcePoint" />
            <mxPoint x="180" y="560" as="targetPoint" />
          </mxGeometry>
        </mxCell>
        <mxCell id="vL3UMr7jNvPBlPEy_zV9-37" value="" style="endArrow=none;html=1;rounded=0;entryX=0;entryY=0.75;entryDx=0;entryDy=0;exitX=0.145;exitY=0.145;exitDx=0;exitDy=0;exitPerimeter=0;" parent="1" source="vL3UMr7jNvPBlPEy_zV9-25" target="Zww7L1hIwnxANnAJBnik-5" edge="1">
          <mxGeometry width="50" height="50" relative="1" as="geometry">
            <mxPoint x="265" y="550" as="sourcePoint" />
            <mxPoint x="190" y="570" as="targetPoint" />
          </mxGeometry>
        </mxCell>
        <mxCell id="6UT2GyPu0_T9rmy_Cv-R-2" value="Dr_Salary" style="strokeWidth=2;html=1;shape=mxgraph.flowchart.start_1;whiteSpace=wrap;" parent="1" vertex="1">
          <mxGeometry x="400" y="170" width="70" height="30" as="geometry" />
        </mxCell>
        <mxCell id="6UT2GyPu0_T9rmy_Cv-R-4" value="" style="endArrow=none;html=1;rounded=0;entryX=0;entryY=0.5;entryDx=0;entryDy=0;entryPerimeter=0;exitX=1;exitY=0.25;exitDx=0;exitDy=0;" parent="1" source="Zww7L1hIwnxANnAJBnik-1" target="6UT2GyPu0_T9rmy_Cv-R-2" edge="1">
          <mxGeometry width="50" height="50" relative="1" as="geometry">
            <mxPoint x="314" y="160" as="sourcePoint" />
            <mxPoint x="450" y="280" as="targetPoint" />
          </mxGeometry>
        </mxCell>
        <mxCell id="6UT2GyPu0_T9rmy_Cv-R-5" value="Bus_Type" style="strokeWidth=2;html=1;shape=mxgraph.flowchart.start_1;whiteSpace=wrap;" parent="1" vertex="1">
          <mxGeometry x="390" y="460" width="70" height="30" as="geometry" />
        </mxCell>
        <mxCell id="6UT2GyPu0_T9rmy_Cv-R-6" value="" style="endArrow=none;html=1;rounded=0;exitX=0.75;exitY=1;exitDx=0;exitDy=0;entryX=0;entryY=0.5;entryDx=0;entryDy=0;entryPerimeter=0;" parent="1" source="Zww7L1hIwnxANnAJBnik-5" target="6UT2GyPu0_T9rmy_Cv-R-5" edge="1">
          <mxGeometry width="50" height="50" relative="1" as="geometry">
            <mxPoint x="400" y="330" as="sourcePoint" />
            <mxPoint x="450" y="280" as="targetPoint" />
          </mxGeometry>
        </mxCell>
        <mxCell id="Zf_pGlwwZq4hRgcPbbMX-1" value="HR_Date" style="strokeWidth=2;html=1;shape=mxgraph.flowchart.start_1;whiteSpace=wrap;" parent="1" vertex="1">
          <mxGeometry x="350" y="280" width="70" height="30" as="geometry" />
        </mxCell>
        <mxCell id="Zf_pGlwwZq4hRgcPbbMX-2" value="" style="endArrow=none;html=1;rounded=0;entryX=0;entryY=0.5;entryDx=0;entryDy=0;entryPerimeter=0;exitX=0.75;exitY=1;exitDx=0;exitDy=0;" parent="1" source="Zww7L1hIwnxANnAJBnik-1" target="Zf_pGlwwZq4hRgcPbbMX-1" edge="1">
          <mxGeometry width="50" height="50" relative="1" as="geometry">
            <mxPoint x="320" y="170" as="sourcePoint" />
            <mxPoint x="438" y="94" as="targetPoint" />
          </mxGeometry>
        </mxCell>
        <mxCell id="BADdK1JZtgxh6Pv7etDZ-1" value="assigned" style="rhombus;whiteSpace=wrap;html=1;fillColor=light-dark(#9999FF,#3399FF);" parent="1" vertex="1">
          <mxGeometry x="365" y="395" width="80" height="50" as="geometry" />
        </mxCell>
        <mxCell id="BADdK1JZtgxh6Pv7etDZ-2" value="" style="endArrow=none;html=1;rounded=0;entryX=1;entryY=0.5;entryDx=0;entryDy=0;exitX=0;exitY=0.5;exitDx=0;exitDy=0;" parent="1" source="BADdK1JZtgxh6Pv7etDZ-1" target="Zww7L1hIwnxANnAJBnik-5" edge="1">
          <mxGeometry width="50" height="50" relative="1" as="geometry">
            <mxPoint x="360" y="385" as="sourcePoint" />
            <mxPoint x="310" y="410" as="targetPoint" />
          </mxGeometry>
        </mxCell>
        <mxCell id="BADdK1JZtgxh6Pv7etDZ-3" value="" style="endArrow=none;html=1;rounded=0;exitX=0;exitY=0.5;exitDx=0;exitDy=0;entryX=1;entryY=0.5;entryDx=0;entryDy=0;" parent="1" source="Zww7L1hIwnxANnAJBnik-4" target="BADdK1JZtgxh6Pv7etDZ-1" edge="1">
          <mxGeometry width="50" height="50" relative="1" as="geometry">
            <mxPoint x="370" y="395" as="sourcePoint" />
            <mxPoint x="450" y="380" as="targetPoint" />
          </mxGeometry>
        </mxCell>
        <mxCell id="BADdK1JZtgxh6Pv7etDZ-4" value="" style="endArrow=none;html=1;rounded=0;entryX=0.5;entryY=0;entryDx=0;entryDy=0;exitX=0.5;exitY=1;exitDx=0;exitDy=0;" parent="1" source="Zww7L1hIwnxANnAJBnik-17" target="Zww7L1hIwnxANnAJBnik-5" edge="1">
          <mxGeometry width="50" height="50" relative="1" as="geometry">
            <mxPoint x="380" y="405" as="sourcePoint" />
            <mxPoint x="330" y="430" as="targetPoint" />
          </mxGeometry>
        </mxCell>
        <mxCell id="BADdK1JZtgxh6Pv7etDZ-5" value="" style="endArrow=none;html=1;rounded=0;entryX=0.5;entryY=0;entryDx=0;entryDy=0;exitX=0.5;exitY=1;exitDx=0;exitDy=0;" parent="1" source="Zww7L1hIwnxANnAJBnik-1" target="Zww7L1hIwnxANnAJBnik-17" edge="1">
          <mxGeometry width="50" height="50" relative="1" as="geometry">
            <mxPoint x="390" y="415" as="sourcePoint" />
            <mxPoint x="340" y="440" as="targetPoint" />
          </mxGeometry>
        </mxCell>
        <mxCell id="BADdK1JZtgxh6Pv7etDZ-8" value="Rout_Id" style="strokeWidth=2;html=1;shape=mxgraph.flowchart.start_1;whiteSpace=wrap;" parent="1" vertex="1">
          <mxGeometry x="160" y="290" width="70" height="30" as="geometry" />
        </mxCell>
        <mxCell id="BADdK1JZtgxh6Pv7etDZ-9" value="" style="endArrow=none;html=1;rounded=0;entryX=0.25;entryY=0;entryDx=0;entryDy=0;exitX=0.5;exitY=1;exitDx=0;exitDy=0;exitPerimeter=0;" parent="1" source="BADdK1JZtgxh6Pv7etDZ-8" target="Zww7L1hIwnxANnAJBnik-5" edge="1">
          <mxGeometry width="50" height="50" relative="1" as="geometry">
            <mxPoint x="360" y="385" as="sourcePoint" />
            <mxPoint x="310" y="410" as="targetPoint" />
          </mxGeometry>
        </mxCell>
        <mxCell id="BADdK1JZtgxh6Pv7etDZ-10" value="" style="endArrow=none;html=1;rounded=0;entryX=1;entryY=0.5;entryDx=0;entryDy=0;exitX=0;exitY=0.5;exitDx=0;exitDy=0;exitPerimeter=0;" parent="1" source="vL3UMr7jNvPBlPEy_zV9-10" target="Zww7L1hIwnxANnAJBnik-4" edge="1">
          <mxGeometry width="50" height="50" relative="1" as="geometry">
            <mxPoint x="370" y="395" as="sourcePoint" />
            <mxPoint x="320" y="420" as="targetPoint" />
          </mxGeometry>
        </mxCell>
        <mxCell id="BADdK1JZtgxh6Pv7etDZ-11" value="" style="endArrow=none;html=1;rounded=0;entryX=0.75;entryY=1;entryDx=0;entryDy=0;exitX=0.145;exitY=0.145;exitDx=0;exitDy=0;exitPerimeter=0;" parent="1" source="vL3UMr7jNvPBlPEy_zV9-13" target="Zww7L1hIwnxANnAJBnik-4" edge="1">
          <mxGeometry width="50" height="50" relative="1" as="geometry">
            <mxPoint x="485" y="320" as="sourcePoint" />
            <mxPoint x="515" y="410" as="targetPoint" />
          </mxGeometry>
        </mxCell>
        <mxCell id="BADdK1JZtgxh6Pv7etDZ-12" value="" style="endArrow=none;html=1;rounded=0;entryX=0.5;entryY=1;entryDx=0;entryDy=0;exitX=0;exitY=0.5;exitDx=0;exitDy=0;exitPerimeter=0;" parent="1" source="vL3UMr7jNvPBlPEy_zV9-12" target="Zww7L1hIwnxANnAJBnik-4" edge="1">
          <mxGeometry width="50" height="50" relative="1" as="geometry">
            <mxPoint x="495" y="330" as="sourcePoint" />
            <mxPoint x="525" y="420" as="targetPoint" />
          </mxGeometry>
        </mxCell>
        <mxCell id="BADdK1JZtgxh6Pv7etDZ-13" value="" style="endArrow=none;html=1;rounded=0;entryX=0.25;entryY=1;entryDx=0;entryDy=0;exitX=0.5;exitY=0;exitDx=0;exitDy=0;exitPerimeter=0;" parent="1" source="vL3UMr7jNvPBlPEy_zV9-11" target="Zww7L1hIwnxANnAJBnik-4" edge="1">
          <mxGeometry width="50" height="50" relative="1" as="geometry">
            <mxPoint x="505" y="340" as="sourcePoint" />
            <mxPoint x="535" y="430" as="targetPoint" />
          </mxGeometry>
        </mxCell>
        <mxCell id="BADdK1JZtgxh6Pv7etDZ-14" value="assigned" style="rhombus;whiteSpace=wrap;html=1;fillColor=light-dark(#9999FF,#3399FF);" parent="1" vertex="1">
          <mxGeometry x="485" y="195" width="80" height="50" as="geometry" />
        </mxCell>
        <mxCell id="BADdK1JZtgxh6Pv7etDZ-15" value="" style="endArrow=none;html=1;rounded=0;entryX=0.5;entryY=0;entryDx=0;entryDy=0;exitX=0.5;exitY=1;exitDx=0;exitDy=0;" parent="1" source="BADdK1JZtgxh6Pv7etDZ-14" target="Zww7L1hIwnxANnAJBnik-4" edge="1">
          <mxGeometry width="50" height="50" relative="1" as="geometry">
            <mxPoint x="605" y="370" as="sourcePoint" />
            <mxPoint x="560" y="370" as="targetPoint" />
          </mxGeometry>
        </mxCell>
        <mxCell id="BADdK1JZtgxh6Pv7etDZ-16" value="" style="endArrow=none;html=1;rounded=0;entryX=1;entryY=0.5;entryDx=0;entryDy=0;exitX=0;exitY=0.5;exitDx=0;exitDy=0;" parent="1" source="BADdK1JZtgxh6Pv7etDZ-14" target="Zww7L1hIwnxANnAJBnik-1" edge="1">
          <mxGeometry width="50" height="50" relative="1" as="geometry">
            <mxPoint x="615" y="380" as="sourcePoint" />
            <mxPoint x="570" y="380" as="targetPoint" />
          </mxGeometry>
        </mxCell>
        <mxCell id="wUtgTL4KJXVYbviG35Oa-1" value="1" style="text;html=1;align=center;verticalAlign=middle;resizable=0;points=[];autosize=1;strokeColor=none;fillColor=none;" vertex="1" parent="1">
          <mxGeometry x="210" y="390" width="30" height="30" as="geometry" />
        </mxCell>
        <mxCell id="wUtgTL4KJXVYbviG35Oa-2" value="M" style="text;html=1;align=center;verticalAlign=middle;resizable=0;points=[];autosize=1;strokeColor=none;fillColor=none;" vertex="1" parent="1">
          <mxGeometry x="120" y="395" width="30" height="30" as="geometry" />
        </mxCell>
        <mxCell id="wUtgTL4KJXVYbviG35Oa-3" value="1" style="text;html=1;align=center;verticalAlign=middle;resizable=0;points=[];autosize=1;strokeColor=none;fillColor=none;" vertex="1" parent="1">
          <mxGeometry x="280" y="375" width="30" height="30" as="geometry" />
        </mxCell>
        <mxCell id="wUtgTL4KJXVYbviG35Oa-4" value="1" style="text;html=1;align=center;verticalAlign=middle;resizable=0;points=[];autosize=1;strokeColor=none;fillColor=none;" vertex="1" parent="1">
          <mxGeometry x="280" y="240" width="30" height="30" as="geometry" />
        </mxCell>
        <mxCell id="wUtgTL4KJXVYbviG35Oa-5" value="M" style="text;html=1;align=center;verticalAlign=middle;resizable=0;points=[];autosize=1;strokeColor=none;fillColor=none;" vertex="1" parent="1">
          <mxGeometry x="320" y="395" width="30" height="30" as="geometry" />
        </mxCell>
        <mxCell id="wUtgTL4KJXVYbviG35Oa-6" value="1" style="text;html=1;align=center;verticalAlign=middle;resizable=0;points=[];autosize=1;strokeColor=none;fillColor=none;" vertex="1" parent="1">
          <mxGeometry x="455" y="390" width="30" height="30" as="geometry" />
        </mxCell>
        <mxCell id="wUtgTL4KJXVYbviG35Oa-7" value="1" style="text;html=1;align=center;verticalAlign=middle;resizable=0;points=[];autosize=1;strokeColor=none;fillColor=none;" vertex="1" parent="1">
          <mxGeometry x="320" y="215" width="30" height="30" as="geometry" />
        </mxCell>
        <mxCell id="wUtgTL4KJXVYbviG35Oa-8" value="1" style="text;html=1;align=center;verticalAlign=middle;resizable=0;points=[];autosize=1;strokeColor=none;fillColor=none;" vertex="1" parent="1">
          <mxGeometry x="520" y="370" width="30" height="30" as="geometry" />
        </mxCell>
      </root>
    </mxGraphModel>
  </diagram>
</mxfile>
